# xmcd CD database file
#
# Track frame offsets:
#	150
#	12605
#	24224
#	35787
#	47156
#	56992
#	68806
#	82237
#	92351
#	102466
#	113862
#	128574
#	142534
#	153234
#	163878
#	175999
#	186922
#	201244
#	216207
#	231420
#	241479
#	254241
#	269232
#	283498
#	294448
#	307795
#	321950
#	336941
#
# Disc length: 4685 seconds
#
# Revision: 2
# Processed by: cddbd v1.5.1PL2 Copyright (c) Steve Scherf et al.
# Submitted via: CDex 1.50
#
DISCID=b6124b1c
DTITLE=Charles Trénet - Triomphes ch.fr. 1 vol 1
DYEAR=2001
DGENRE=Variétés fr
TTITLE0=Je chante
TTITLE1=Fleur bleue
TTITLE2=J'ai ta main
TTITLE3=Y'a d'la joie
TTITLE4=Le Grand Café
TTITLE5=La polka du roi
TTITLE6=Vous oubliez votre cheval
TTITLE7=Biguine à bango
TTITLE8=Vous êtes jolie
TTITLE9=Boum
TTITLE10=Ménilmontant
TTITLE11=Les oiseaux de Paris
TTITLE12=Tout me sourit
TTITLE13=Le soleil et la lune
TTITLE14=Mam'zelle Clio
TTITLE15=Pic,pic,pic
TTITLE16=Verlaine
TTITLE17=Papa pique et maman coud
TTITLE18=Bonsoir,jolie Madame
TTITLE19=Un rien me fait chanter
TTITLE20=La romance de Paris
TTITLE21=Swing troubadour
TTITLE22=Que reste-t-il de nos amours ?
TTITLE23=Débit de l'eau, débit de lait
TTITLE24=Revoir Paris
TTITLE25=Douce France
TTITLE26=La mer
TTITLE27=Mes jeunes années
EXTD=YEAR: 2001
EXTT0=
EXTT1=
EXTT2=
EXTT3=
EXTT4=
EXTT5=
EXTT6=
EXTT7=
EXTT8=
EXTT9=
EXTT10=
EXTT11=
EXTT12=
EXTT13=
EXTT14=
EXTT15=
EXTT16=
EXTT17=
EXTT18=
EXTT19=
EXTT20=
EXTT21=
EXTT22=
EXTT23=
EXTT24=
EXTT25=
EXTT26=
EXTT27=
PLAYORDER=
